<?xml version="1.0" encoding="UTF-8"?>
<svg version="1.1" xmlns="http://www.w3.org/2000/svg" width="448" height="355">
<path d="M0 0 C147.84 0 295.68 0 448 0 C448 117.15 448 234.3 448 355 C300.16 355 152.32 355 0 355 C0 237.85 0 120.7 0 0 Z " fill="#FEFEFE" transform="translate(0,0)"/>
<path d="M0 0 C9.02066644 5.23403336 14.23839441 12.39234588 17.375 22.30859375 C20.70779568 36.40354214 18.86205085 50.97216101 12.08984375 63.734375 C9.83767919 67.1216305 7.08680412 69.79240223 3.625 71.9375 C2.965 71.9375 2.305 71.9375 1.625 71.9375 C1.625 72.5975 1.625 73.2575 1.625 73.9375 C-2.55450072 75.93534929 -6.07509277 76.26538655 -10.6875 76.3125 C-11.94175781 76.34085937 -13.19601562 76.36921875 -14.48828125 76.3984375 C-18.375 75.9375 -18.375 75.9375 -26.375 71.9375 C-26.375 79.8575 -26.375 87.7775 -26.375 95.9375 C-33.635 97.2575 -40.895 98.5775 -48.375 99.9375 C-48.375 66.6075 -48.375 33.2775 -48.375 -1.0625 C-42.105 -1.0625 -35.835 -1.0625 -29.375 -1.0625 C-29.045 0.2575 -28.715 1.5775 -28.375 2.9375 C-27.80394531 2.5765625 -27.23289062 2.215625 -26.64453125 1.84375 C-18.01692129 -3.09415077 -9.22438102 -4.21966366 0 0 Z " fill="#655AF9" transform="translate(297.375,142.0625)"/>
<path d="M0 0 C4.73656311 2.84032405 8.1237438 6.5830273 11.375 11 C11.9525 11.763125 12.53 12.52625 13.125 13.3125 C18.07319109 23.95111084 17.375 32.71664682 17.375 45 C3.515 45 -10.345 45 -24.625 45 C-22.73515122 50.66954633 -21.87549054 52.28082078 -17.625 56 C-10.82394398 59.40052801 1.92466541 57.46074632 9 55.5 C10.44375 55.005 11.8875 54.51 13.375 54 C13.375 59.94 13.375 65.88 13.375 72 C0.99305408 76.3067638 -13.59881393 78.99197374 -26.375 74.4375 C-35.96978843 69.64010578 -41.90004206 61.93322117 -45.625 52 C-47.90783746 41.23130466 -48.16847 28.14952572 -43.625 18 C-43.11453125 16.83597656 -43.11453125 16.83597656 -42.59375 15.6484375 C-39.68800917 9.77805569 -35.8936034 5.8371338 -30.625 2 C-30.06554687 1.56429687 -29.50609375 1.12859375 -28.9296875 0.6796875 C-21.19354683 -4.28115607 -8.19926428 -3.70978982 0 0 Z " fill="#655AF9" transform="translate(366.625,142)"/>
<path d="M0 0 C1 1 1 1 1.11352539 2.94946289 C1.10828857 3.7821167 1.10305176 4.61477051 1.09765625 5.47265625 C1.09443359 6.37177734 1.09121094 7.27089844 1.08789062 8.19726562 C1.07532227 9.61555664 1.07532227 9.61555664 1.0625 11.0625 C1.05798828 12.01189453 1.05347656 12.96128906 1.04882812 13.93945312 C1.0370011 16.29303065 1.02052025 18.64648477 1 21 C0.40832031 20.79503906 -0.18335938 20.59007812 -0.79296875 20.37890625 C-7.67352169 18.0330081 -13.50424871 16.84658396 -20.8125 16.9375 C-21.50537109 16.94201172 -22.19824219 16.94652344 -22.91210938 16.95117188 C-24.60811068 16.96286844 -26.30406703 16.98080076 -28 17 C-27.67 19.31 -27.34 21.62 -27 24 C-26.45472656 24.18175781 -25.90945312 24.36351562 -25.34765625 24.55078125 C-17.17382812 27.27539062 -17.17382812 27.27539062 -9 30 C-9 30.66 -9 31.32 -9 32 C-7.87658203 32.13341797 -7.87658203 32.13341797 -6.73046875 32.26953125 C-2.05089959 33.52143316 0.26145743 37.18156822 3 41 C6.08135431 47.43065247 5.73734095 53.55120571 3.4375 60.125 C1.27997827 65.0608041 -1.4416551 68.16333213 -6 71 C-6.79313599 71.51191895 -6.79313599 71.51191895 -7.60229492 72.03417969 C-13.56855627 75.49533427 -19.03099813 75.60204141 -25.8125 75.5 C-27.33713867 75.52320313 -27.33713867 75.52320313 -28.89257812 75.546875 C-36.38301254 75.50868286 -42.08822911 73.87183226 -49 71 C-49 64.4 -49 57.8 -49 51 C-47.494375 51.45375 -45.98875 51.9075 -44.4375 52.375 C-43.51710938 52.64699219 -42.59671875 52.91898438 -41.6484375 53.19921875 C-39.6056109 53.81688756 -37.57969076 54.49065228 -35.5625 55.1875 C-30.52580427 56.33622008 -23.77389957 57.38694978 -19 55 C-18.58253392 52.12635209 -18.58253392 52.12635209 -19 49 C-23.66693807 45.60904125 -29.219612 43.76348803 -34.52734375 41.59765625 C-40.98422861 38.62705343 -46.02317995 35.2451855 -49.0859375 28.66796875 C-51.17315273 22.57579779 -50.76186945 16.07228306 -48.375 10.125 C-46.32047947 6.12296522 -43.87309261 3.31026577 -40 1 C-39.3709375 0.608125 -38.741875 0.21625 -38.09375 -0.1875 C-27.59891669 -5.50882393 -10.5610228 -5.0327837 0 0 Z " fill="#655AF8" transform="translate(122,143)"/>
<path d="M0 0 C0 5.94 0 11.88 0 18 C5.61 18 11.22 18 17 18 C17 24.27 17 30.54 17 37 C11.39 37 5.78 37 0 37 C0.07404901 41.76977754 0.15691368 46.53769546 0.26245117 51.30664062 C0.29566835 52.92828686 0.32371035 54.55004781 0.34643555 56.171875 C0.38004155 58.50570477 0.4323576 60.83848635 0.48828125 63.171875 C0.49467117 63.89493835 0.5010611 64.61800171 0.50764465 65.36297607 C0.62739077 69.47912305 0.98215665 72.07974401 4 75 C6.12569555 75.69388522 6.12569555 75.69388522 8.4375 75.75 C9.58025391 75.83507812 9.58025391 75.83507812 10.74609375 75.921875 C12.82964055 75.99409499 14.91520193 76 17 76 C17 81.61 17 87.22 17 93 C9.40667273 95.9875386 2.23112671 97.74122852 -5.74609375 95.0859375 C-12.55390689 91.9500949 -16.18417478 88.55402989 -19.6105957 81.84765625 C-22.07848899 75.00819137 -21.36580359 67.42136693 -21.29296875 60.25 C-21.28736579 58.62475986 -21.283099 56.99951462 -21.28010559 55.37426758 C-21.26871184 51.11958556 -21.23929255 46.86521618 -21.20599365 42.61065674 C-21.17517409 38.26001208 -21.16157497 33.90931636 -21.14648438 29.55859375 C-21.11441692 21.03891985 -21.06328776 12.51949894 -21 4 C-18.62734939 3.32382476 -16.25244645 2.65891774 -13.875 2 C-13.20984375 1.80921875 -12.5446875 1.6184375 -11.859375 1.421875 C-7.60734972 0.25465237 -4.53358829 0 0 0 Z " fill="#645AFA" transform="translate(152,123)"/>
<path d="M0 0 C0.66 0.33 1.32 0.66 2 1 C2 7.6 2 14.2 2 21 C-0.70182292 21.16276042 -3.40364583 21.32552083 -6.10546875 21.48828125 C-9.44103517 22.07796978 -11.30220206 22.95674747 -14 25 C-14.75861808 27.37818713 -14.75861808 27.37818713 -14.65942383 30.11401367 C-14.67906693 31.15486618 -14.69871002 32.19571869 -14.71894836 33.26811218 C-14.71501572 34.39006485 -14.71108307 35.51201752 -14.70703125 36.66796875 C-14.72215256 37.81791824 -14.73727386 38.96786774 -14.75285339 40.15266418 C-14.79589412 43.83113971 -14.80458468 47.50879724 -14.8125 51.1875 C-14.83563139 53.67905846 -14.86099387 56.17059728 -14.88867188 58.66210938 C-14.95168676 64.77481242 -14.98389405 70.88700059 -15 77 C-21.93 77 -28.86 77 -36 77 C-36 51.92 -36 26.84 -36 1 C-29.73 1 -23.46 1 -17 1 C-17 2.65 -17 4.3 -17 6 C-16.443125 5.566875 -15.88625 5.13375 -15.3125 4.6875 C-9.90349674 0.74038951 -6.69997615 -0.82280409 0 0 Z " fill="#645AF9" transform="translate(212,140)"/>
<path d="M0 0 C7.26 0 14.52 0 22 0 C22 25.08 22 50.16 22 76 C14.74 76 7.48 76 0 76 C0 50.92 0 25.84 0 0 Z " fill="#685DF1" transform="translate(219,141)"/>
<path d="M0 0 C0.33 0 0.66 0 1 0 C1 5.61 1 11.22 1 17 C6.94 17 12.88 17 19 17 C19.33 16.34 19.66 15.68 20 15 C20.66 15 21.32 15 22 15 C22 15.99 22 16.98 22 18 C22.66 18 23.32 18 24 18 C24 43.08 24 68.16 24 94 C30.93 94 37.86 94 45 94 C45 94.33 45 94.66 45 95 C37.74 95 30.48 95 23 95 C22.67 87.74 22.34 80.48 22 73 C21.34 74.32 20.68 75.64 20 77 C19.34 77 18.68 77 18 77 C18 82.61 18 88.22 18 94 C15.03 94.495 15.03 94.495 12 95 C12.99 94.01 12.99 94.01 14 93 C14.99 93 15.98 93 17 93 C17 87.39 17 81.78 17 76 C15.453125 76.226875 13.90625 76.45375 12.3125 76.6875 C8.84008684 77.03621476 7.2762901 77.11512087 4 75.75 C2 74 2 74 0 71 C-0.17145815 68.38590855 -0.23233432 65.88130326 -0.1953125 63.26953125 C-0.1924826 62.51911057 -0.18965271 61.76868988 -0.18673706 60.99552917 C-0.17555062 58.60102325 -0.15044928 56.20689269 -0.125 53.8125 C-0.11496819 52.18815645 -0.10584269 50.56380703 -0.09765625 48.93945312 C-0.0773186 44.9593748 -0.03816832 40.98010709 0 37 C5.61 37 11.22 37 17 37 C17 30.73 17 24.46 17 18 C11.39 18 5.78 18 0 18 C0 12.06 0 6.12 0 0 Z " fill="#F4F5FC" transform="translate(152,123)"/>
<path d="M0 0 C3.62002571 3.01668809 5.76682057 6.42546171 7.25 10.875 C7.84999764 20.60188478 8.31512937 29.11582415 1.6875 36.875 C-2.78490646 39.4771274 -6.673241 39.88029881 -11.75 38.875 C-13.86254883 37.82226562 -13.86254883 37.82226562 -15.75 35.875 C-16.16854473 33.1963137 -16.33490561 30.93103666 -16.31640625 28.25 C-16.32260483 27.50669434 -16.32880341 26.76338867 -16.33518982 25.99755859 C-16.34228766 24.42742217 -16.33911442 22.85721049 -16.32641602 21.28710938 C-16.31254447 18.8827088 -16.34661747 16.48219685 -16.38476562 14.078125 C-16.3857168 12.55208238 -16.38385809 11.02603488 -16.37890625 9.5 C-16.39879356 8.42177979 -16.39879356 8.42177979 -16.41908264 7.32177734 C-16.38110352 5.2890625 -16.38110352 5.2890625 -15.75 1.875 C-10.86322151 -2.08174134 -5.71249928 -2.33693152 0 0 Z " fill="#F7FAFB" transform="translate(286.75,160.125)"/>
<path d="M0 0 C1 1 1 1 1.11352539 2.94946289 C1.10828857 3.7821167 1.10305176 4.61477051 1.09765625 5.47265625 C1.09443359 6.37177734 1.09121094 7.27089844 1.08789062 8.19726562 C1.07532227 9.61555664 1.07532227 9.61555664 1.0625 11.0625 C1.05798828 12.01189453 1.05347656 12.96128906 1.04882812 13.93945312 C1.0370011 16.29303065 1.02052025 18.64648477 1 21 C0.40832031 20.79503906 -0.18335938 20.59007812 -0.79296875 20.37890625 C-7.67352169 18.0330081 -13.50424871 16.84658396 -20.8125 16.9375 C-21.50537109 16.94201172 -22.19824219 16.94652344 -22.91210938 16.95117188 C-24.60811068 16.96286844 -26.30406703 16.98080076 -28 17 C-27.67 19.31 -27.34 21.62 -27 24 C-26.45472656 24.18175781 -25.90945312 24.36351562 -25.34765625 24.55078125 C-17.17382812 27.27539062 -17.17382812 27.27539062 -9 30 C-9 30.66 -9 31.32 -9 32 C-7.87658203 32.13341797 -7.87658203 32.13341797 -6.73046875 32.26953125 C-2.05089959 33.52143316 0.26145743 37.18156822 3 41 C5.61485593 46.45709063 5.9195796 51.91057495 4.20703125 57.6640625 C1.59807692 64.60128205 1.59807692 64.60128205 -2 67 C-2 66.01 -2 65.02 -2 64 C-1.34 64 -0.68 64 0 64 C0.144375 63.21625 0.28875 62.4325 0.4375 61.625 C1 59 1 59 2 57 C2.0716735 54.44842345 2.09308442 51.92527029 2.0625 49.375 C2.05798828 48.66859375 2.05347656 47.9621875 2.04882812 47.234375 C2.03703875 45.48954725 2.01910324 43.744763 2 42 C1.34 42 0.68 42 0 42 C-0.495 40.02 -0.495 40.02 -1 38 C-2.65 37.67 -4.3 37.34 -6 37 C-6.33 36.01 -6.66 35.02 -7 34 C-9.56042066 32.96961044 -9.56042066 32.96961044 -12.5625 32.3125 C-14.08037109 31.93544922 -14.08037109 31.93544922 -15.62890625 31.55078125 C-16.41136719 31.36902344 -17.19382813 31.18726563 -18 31 C-18 30.34 -18 29.68 -18 29 C-20.97 29.495 -20.97 29.495 -24 30 C-24 28.68 -24 27.36 -24 26 C-24.78375 25.690625 -25.5675 25.38125 -26.375 25.0625 C-29 24 -29 24 -31 23 C-30.67 20.03 -30.34 17.06 -30 14 C-26.44075986 13.18756475 -23.14872305 12.86475078 -19.5 12.875 C-18.12328125 12.87113281 -18.12328125 12.87113281 -16.71875 12.8671875 C-14.04995546 12.99755965 -11.60134847 13.40621394 -9 14 C-9 14.66 -9 15.32 -9 16 C-6.69 16.33 -4.38 16.66 -2 17 C-2 12.05 -2 7.1 -2 2 C-4.68625454 1.49236135 -7.37368383 0.99372803 -10.0625 0.5 C-10.81466797 0.35691406 -11.56683594 0.21382812 -12.34179688 0.06640625 C-19.05751596 -1.15463358 -25.13419802 -1.50597311 -31.8125 0.25 C-32.74707031 0.48203125 -33.68164062 0.7140625 -34.64453125 0.953125 C-37.47781767 2.21236341 -37.83688287 3.21986637 -39 6 C-39.66 6.12375 -40.32 6.2475 -41 6.375 C-41.66 6.58125 -42.32 6.7875 -43 7 C-43.73080266 8.97746603 -44.39421747 10.98072489 -45 13 C-45.5053125 13.47179687 -46.010625 13.94359375 -46.53125 14.4296875 C-48.89632235 16.95830209 -48.46451603 19.32845304 -48.3671875 22.6484375 C-47.77995893 26.40919922 -46.08712248 28.83769322 -44 32 C-43.67 32.99 -43.34 33.98 -43 35 C-42.01 35 -41.02 35 -40 35 C-40 35.66 -40 36.32 -40 37 C-38.35 37.33 -36.7 37.66 -35 38 C-35 38.66 -35 39.32 -35 40 C-33.25021843 40.16894443 -31.50016388 40.33506309 -29.75 40.5 C-28.77546875 40.5928125 -27.8009375 40.685625 -26.796875 40.78125 C-24.53697847 40.95800168 -22.26679807 41 -20 41 C-19.40267181 43.76264289 -19 46.16032769 -19 49 C-19.68191406 48.56558594 -20.36382812 48.13117188 -21.06640625 47.68359375 C-25.3717327 45.21276059 -29.93733958 43.47061769 -34.52734375 41.59765625 C-40.98422861 38.62705343 -46.02317995 35.2451855 -49.0859375 28.66796875 C-51.17315273 22.57579779 -50.76186945 16.07228306 -48.375 10.125 C-46.32047947 6.12296522 -43.87309261 3.31026577 -40 1 C-39.3709375 0.608125 -38.741875 0.21625 -38.09375 -0.1875 C-27.59891669 -5.50882393 -10.5610228 -5.0327837 0 0 Z " fill="#6E66D6" transform="translate(122,143)"/>
<path d="M0 0 C0.66 0.33 1.32 0.66 2 1 C2 7.6 2 14.2 2 21 C-0.70182292 21.16276042 -3.40364583 21.32552083 -6.10546875 21.48828125 C-9.44103517 22.07796978 -11.30220206 22.95674747 -14 25 C-14.75861808 27.37818713 -14.75861808 27.37818713 -14.65942383 30.11401367 C-14.67906693 31.15486618 -14.69871002 32.19571869 -14.71894836 33.26811218 C-14.71501572 34.39006485 -14.71108307 35.51201752 -14.70703125 36.66796875 C-14.72215256 37.81791824 -14.73727386 38.96786774 -14.75285339 40.15266418 C-14.79589412 43.83113971 -14.80458468 47.50879724 -14.8125 51.1875 C-14.83563139 53.67905846 -14.86099387 56.17059728 -14.88867188 58.66210938 C-14.95168676 64.77481242 -14.98389405 70.88700059 -15 77 C-21.93 77 -28.86 77 -36 77 C-36 51.92 -36 26.84 -36 1 C-29.73 1 -23.46 1 -17 1 C-17 2.98 -17 4.96 -17 7 C-17.99 6.34 -18.98 5.68 -20 5 C-20 4.34 -20 3.68 -20 3 C-24.95 3 -29.9 3 -35 3 C-34.83628906 4.76601562 -34.67257813 6.53203125 -34.50390625 8.3515625 C-33.67122722 20.00906889 -33.89467677 31.69476338 -33.9375 43.375 C-33.94252507 45.76822823 -33.94708619 48.16145748 -33.95117188 50.5546875 C-33.96209764 56.36981426 -33.97875592 62.18490226 -34 68 C-32.02 68 -30.04 68 -28 68 C-28 68.66 -28 69.32 -28 70 C-29.65 70 -31.3 70 -33 70 C-32.67 70.99 -32.34 71.98 -32 73 C-27.05 73.66 -22.1 74.32 -17 75 C-17.02618408 73.44047607 -17.05236816 71.88095215 -17.0793457 70.27416992 C-17.16971211 64.49892473 -17.2272009 58.72374222 -17.2746582 52.94799805 C-17.29983309 50.44626362 -17.33397537 47.94460295 -17.37719727 45.44311523 C-17.43771491 41.85121487 -17.46618054 38.2602851 -17.48828125 34.66796875 C-17.51408768 33.54601608 -17.5398941 32.42406342 -17.56648254 31.26811218 C-17.5668602 30.22725967 -17.56723785 29.18640717 -17.56762695 28.11401367 C-17.57873001 27.19690109 -17.58983307 26.27978851 -17.60127258 25.33488464 C-17 23 -17 23 -14.65910339 21.21235657 C-11.56187584 19.80024744 -9.07796652 19.49878937 -5.6875 19.3125 C-3.810625 19.209375 -1.93375 19.10625 0 19 C-0.33 13.72 -0.66 8.44 -1 3 C-3.165625 3.309375 -3.165625 3.309375 -5.375 3.625 C-7.8359375 3.9765625 -7.8359375 3.9765625 -10 4 C-10.66 3.34 -11.32 2.68 -12 2 C-8.08488397 -0.61007735 -4.5480334 -0.22006613 0 0 Z " fill="#675CE6" transform="translate(212,140)"/>
<path d="M0 0 C0 5.94 0 11.88 0 18 C5.61 18 11.22 18 17 18 C17 24.27 17 30.54 17 37 C11.39 37 5.78 37 0 37 C0 47.56 0 58.12 0 69 C-0.33 69 -0.66 69 -1 69 C-1.0246519 64.17619198 -1.04283693 59.35242033 -1.05493164 54.52856445 C-1.05997174 52.88630536 -1.06680378 51.24405077 -1.07543945 49.60180664 C-1.08751926 47.24624521 -1.09323139 44.89074291 -1.09765625 42.53515625 C-1.10281754 41.79660904 -1.10797882 41.05806183 -1.11329651 40.2971344 C-1.1134925 38.53101912 -1.06194719 36.76502854 -1 35 C0 34 0 34 3.37890625 33.90234375 C4.77347077 33.90901631 6.16801743 33.92097468 7.5625 33.9375 C8.27341797 33.94201172 8.98433594 33.94652344 9.71679688 33.95117188 C11.47790013 33.96299136 13.23896036 33.98092737 15 34 C15 29.38 15 24.76 15 20 C9.39 20 3.78 20 -2 20 C-2 14.06 -2 8.12 -2 2 C-3.32 2 -4.64 2 -6 2 C-6 2.66 -6 3.32 -6 4 C-12.435 4.495 -12.435 4.495 -19 5 C-19 29.75 -19 54.5 -19 80 C-18.34 80 -17.68 80 -17 80 C-16.566875 80.9075 -16.13375 81.815 -15.6875 82.75 C-13.01811985 88.18436815 -13.01811985 88.18436815 -8 91 C-8 91.66 -8 92.32 -8 93 C-12.7522231 91.64222197 -15.35547857 89.04482797 -18 85 C-22.05352053 77.13215126 -21.38050324 68.86870429 -21.29296875 60.25 C-21.28736579 58.62475986 -21.283099 56.99951462 -21.28010559 55.37426758 C-21.26871184 51.11958556 -21.23929255 46.86521618 -21.20599365 42.61065674 C-21.17517409 38.26001208 -21.16157497 33.90931636 -21.14648438 29.55859375 C-21.11441692 21.03891985 -21.06328776 12.51949894 -21 4 C-18.62734939 3.32382476 -16.25244645 2.65891774 -13.875 2 C-13.20984375 1.80921875 -12.5446875 1.6184375 -11.859375 1.421875 C-7.60734972 0.25465237 -4.53358829 0 0 0 Z " fill="#746BD9" transform="translate(152,123)"/>
<path d="M0 0 C0 5.94 0 11.88 0 18 C-2.701875 18.66 -5.40375 19.32 -8.1875 20 C-9.02949951 20.20882812 -9.87149902 20.41765625 -10.73901367 20.6328125 C-11.75572144 20.87644531 -11.75572144 20.87644531 -12.79296875 21.125 C-13.4789917 21.29257813 -14.16501465 21.46015625 -14.87182617 21.6328125 C-17 22 -17 22 -22 22 C-22 16.39 -22 10.78 -22 5 C-19.08503169 4.1602972 -16.1682814 3.32803997 -13.25 2.5 C-12.0125 2.14228516 -12.0125 2.14228516 -10.75 1.77734375 C-9.95078125 1.55175781 -9.1515625 1.32617188 -8.328125 1.09375 C-7.5949707 0.88427734 -6.86181641 0.67480469 -6.10644531 0.45898438 C-4 0 -4 0 0 0 Z " fill="#6659F4" transform="translate(241,112)"/>
<path d="M0 0 C4.9145115 0.57335967 6.29902506 1.98652506 9.75 5.4375 C10.75 7.4375 10.75 7.4375 10.75 14.4375 C3.82 14.4375 -3.11 14.4375 -10.25 14.4375 C-10.25 7.4375 -10.25 7.4375 -7.875 4.625 C-6.575625 3.5421875 -6.575625 3.5421875 -5.25 2.4375 C-3.25 0.4375 -3.25 0.4375 0 0 Z " fill="#F3F6FD" transform="translate(352.25,156.5625)"/>
<path d="M0 0 C4.06083698 1.9278721 6.49251992 3.18213925 9.01953125 6.97265625 C7.69953125 6.64265625 6.37953125 6.31265625 5.01953125 5.97265625 C5.01953125 5.31265625 5.01953125 4.65265625 5.01953125 3.97265625 C0.06953125 2.98265625 0.06953125 2.98265625 -4.98046875 1.97265625 C-4.98046875 1.31265625 -4.98046875 0.65265625 -4.98046875 -0.02734375 C-10.81960467 0.24298662 -14.95370207 1.28206515 -20.05078125 4.1171875 C-23.123897 5.47956068 -25.66703846 5.24877544 -28.98046875 4.97265625 C-28.98046875 3.98265625 -28.98046875 2.99265625 -28.98046875 1.97265625 C-36.90046875 2.46765625 -36.90046875 2.46765625 -44.98046875 2.97265625 C-44.98046875 34.65265625 -44.98046875 66.33265625 -44.98046875 98.97265625 C-43.49546875 98.47765625 -43.49546875 98.47765625 -41.98046875 97.97265625 C-39.6474705 97.93311391 -37.31338686 97.92863893 -34.98046875 97.97265625 C-38.84371102 100.29060161 -41.00329114 100.26163088 -45.98046875 100.97265625 C-45.98046875 67.64265625 -45.98046875 34.31265625 -45.98046875 -0.02734375 C-39.71046875 -0.02734375 -33.44046875 -0.02734375 -26.98046875 -0.02734375 C-26.65046875 1.29265625 -26.32046875 2.61265625 -25.98046875 3.97265625 C-25.40941406 3.61171875 -24.83835937 3.25078125 -24.25 2.87890625 C-16.42079396 -1.60203838 -8.69823109 -2.99821072 0 0 Z " fill="#7871CC" transform="translate(294.98046875,141.02734375)"/>
<path d="M0 0 C6.27 0 12.54 0 19 0 C19 1.98 19 3.96 19 6 C18.01 5.34 17.02 4.68 16 4 C16 3.34 16 2.68 16 2 C11.05 2 6.1 2 1 2 C1.33 26.09 1.66 50.18 2 75 C7.94 75 13.88 75 20 75 C20 59.16 20 43.32 20 27 C20.33 27 20.66 27 21 27 C21 43.17 21 59.34 21 76 C14.07 76 7.14 76 0 76 C0 50.92 0 25.84 0 0 Z " fill="#6860C9" transform="translate(176,141)"/>
<path d="M0 0 C0.33 0 0.66 0 1 0 C1 5.94 1 11.88 1 18 C-12.86 18 -26.72 18 -41 18 C-39.11015122 23.66954633 -38.25049054 25.28082078 -34 29 C-27.19894398 32.40052801 -14.45033459 30.46074632 -7.375 28.5 C-5.93125 28.005 -4.4875 27.51 -3 27 C-3 32.94 -3 38.88 -3 45 C-3.99 44.505 -3.99 44.505 -5 44 C-5 39.71 -5 35.42 -5 31 C-5.91136719 31.16242188 -6.82273437 31.32484375 -7.76171875 31.4921875 C-13.09377127 32.2521829 -18.43742037 32.14519441 -23.8125 32.125 C-24.86115234 32.12886719 -25.90980469 32.13273437 -26.99023438 32.13671875 C-28.48973633 32.13478516 -28.48973633 32.13478516 -30.01953125 32.1328125 C-30.92807861 32.13168457 -31.83662598 32.13055664 -32.77270508 32.12939453 C-35 32 -35 32 -37 31 C-37 30.34 -37 29.68 -37 29 C-38.32 28.67 -39.64 28.34 -41 28 C-42.19287411 24.12315913 -43 21.08378077 -43 17 C-28.81 17 -14.62 17 0 17 C0 11.39 0 5.78 0 0 Z " fill="#736CD1" transform="translate(383,169)"/>
<path d="M0 0 C0 0.66 0 1.32 0 2 C1.32 2 2.64 2 4 2 C9.84172662 11.38848921 9.84172662 11.38848921 9 17 C8 18 8 18 5.68334961 18.11352539 C4.68311768 18.10828857 3.68288574 18.10305176 2.65234375 18.09765625 C1.57275391 18.09443359 0.49316406 18.09121094 -0.61914062 18.08789062 C-1.75544922 18.07951172 -2.89175781 18.07113281 -4.0625 18.0625 C-5.20267578 18.05798828 -6.34285156 18.05347656 -7.51757812 18.04882812 C-10.34507418 18.0369976 -13.17254345 18.0190615 -16 18 C-16 13.71 -16 9.42 -16 5 C-15.01 5 -14.02 5 -13 5 C-13 4.34 -13 3.68 -13 3 C-8.44573816 0.33409063 -5.26053037 -0.31563182 0 0 Z M-14 7 C-15.52174919 9.67082039 -15.52174919 9.67082039 -15 16 C-8.07 16 -1.14 16 6 16 C6.63198489 9.42300959 6.63198489 9.42300959 4.1875 6.1875 C1.35994372 3.35994372 -0.3045647 2.09184995 -4.3125 1.5625 C-9.17487109 2.13939149 -10.58138701 3.58138701 -14 7 Z " fill="#746DD9" transform="translate(357,155)"/>
<path d="M0 0 C0.33 0 0.66 0 1 0 C1.01458252 1.0194873 1.02916504 2.03897461 1.04418945 3.08935547 C1.10208466 6.86543166 1.17931665 10.64090596 1.26245117 14.41650391 C1.29574214 16.05182134 1.32376106 17.68725482 1.34643555 19.32275391 C1.37990628 21.67140243 1.43221436 24.01898337 1.48828125 26.3671875 C1.49786613 27.46726639 1.49786613 27.46726639 1.50764465 28.58956909 C1.53994543 30.87324756 1.53994543 30.87324756 2 34 C6.24266936 36.82844624 10.01771295 36.65367606 15 36 C18.5272243 33.89867489 20.70710385 31.37900485 23 28 C22.9375 31.25 22.9375 31.25 22 35 C17.77910511 38.35948777 14.37445131 39.60819209 8.9921875 39.3359375 C4.97375423 38.65831934 1.62082165 36.81041083 -2 35 C-1.88188019 30.33673618 -1.75764134 25.6736912 -1.62768555 21.01074219 C-1.58432759 19.42387343 -1.54265313 17.83695776 -1.50268555 16.25 C-1.44500368 13.97121021 -1.38130362 11.69265678 -1.31640625 9.4140625 C-1.29969376 8.70255035 -1.28298126 7.99103821 -1.26576233 7.25796509 C-1.11387171 2.22774341 -1.11387171 2.22774341 0 0 Z " fill="#726CD8" transform="translate(270,162)"/>
<path d="M0 0 C0.474375 0.639375 0.94875 1.27875 1.4375 1.9375 C5.93935982 5.56094815 11.41055499 5 17 5 C17 10.61 17 16.22 17 22 C9.56185867 24.92648183 1.9517021 26.78507493 -5.828125 23.98046875 C-6.54484375 23.65691406 -7.2615625 23.33335937 -8 23 C-8 22.67 -8 22.34 -8 22 C-0.41 21.67 7.18 21.34 15 21 C15 16.71 15 12.42 15 8 C13.989375 8.061875 12.97875 8.12375 11.9375 8.1875 C7.30836872 7.96706518 4.98877591 7.31349003 1 5 C0.0625 2.3125 0.0625 2.3125 0 0 Z " fill="#6A5EDA" transform="translate(152,194)"/>
<path d="M0 0 C0 5.94 0 11.88 0 18 C-0.33 18 -0.66 18 -1 18 C-1 12.39 -1 6.78 -1 1 C-1.66 1 -2.32 1 -3 1 C-3 1.66 -3 2.32 -3 3 C-3.66386719 3.12117188 -4.32773438 3.24234375 -5.01171875 3.3671875 C-11.70124948 4.5543974 -11.70124948 4.5543974 -18 7 C-19.28446919 9.56893838 -19.32977144 11.76576337 -19.5625 14.625 C-19.68818359 16.12933594 -19.68818359 16.12933594 -19.81640625 17.6640625 C-19.87699219 18.43492187 -19.93757812 19.20578125 -20 20 C-19.195625 19.67 -18.39125 19.34 -17.5625 19 C-13.26195205 17.79282865 -9.43033819 17.82278647 -5 18 C-7.61351543 19.3853378 -10.06797129 20.40903838 -12.9375 21.125 C-13.58589844 21.29257813 -14.23429688 21.46015625 -14.90234375 21.6328125 C-17 22 -17 22 -22 22 C-22 16.39 -22 10.78 -22 5 C-19.08503169 4.1602972 -16.1682814 3.32803997 -13.25 2.5 C-12.0125 2.14228516 -12.0125 2.14228516 -10.75 1.77734375 C-9.95078125 1.55175781 -9.1515625 1.32617188 -8.328125 1.09375 C-7.5949707 0.88427734 -6.86181641 0.67480469 -6.10644531 0.45898438 C-4 0 -4 0 0 0 Z " fill="#716ACD" transform="translate(241,112)"/>
<path d="M0 0 C0.33 0 0.66 0 1 0 C1.33 25.41 1.66 50.82 2 77 C0.33333333 77 -1.33333333 77 -3 77 C-3.33 77.99 -3.66 78.98 -4 80 C-4.66 79.67 -5.32 79.34 -6 79 C-5.34 76.36 -4.68 73.72 -4 71 C-3.01 71 -2.02 71 -1 71 C-0.67 47.57 -0.34 24.14 0 0 Z " fill="#F2F3FE" transform="translate(130,127)"/>
<path d="M0 0 C0.66 0.33 1.32 0.66 2 1 C-2.75 5 -2.75 5 -5 5 C-5 5.66 -5 6.32 -5 7 C-9.17950072 8.99784929 -12.70009277 9.32788655 -17.3125 9.375 C-18.56675781 9.40335938 -19.82101562 9.43171875 -21.11328125 9.4609375 C-25 9 -25 9 -33 5 C-33 12.92 -33 20.84 -33 29 C-33.33 29 -33.66 29 -34 29 C-34 20.75 -34 12.5 -34 4 C-30.23375329 2.74458443 -28.62811066 3.62938042 -25 5 C-25 5.66 -25 6.32 -25 7 C-19.06 6.67 -13.12 6.34 -7 6 C-7 5.34 -7 4.68 -7 4 C-1.7265625 0.77734375 -1.7265625 0.77734375 0 0 Z " fill="#7F79D9" transform="translate(304,209)"/>
<path d="M0 0 C1.2375 -0.04125 2.475 -0.0825 3.75 -0.125 C4.79414062 -0.15980469 4.79414062 -0.15980469 5.859375 -0.1953125 C8 0 8 0 12 2 C12 8.6 12 15.2 12 22 C9.03 21.01 6.06 20.02 3 19 C0.11934982 18.51946335 -2.66873386 18.10811435 -5.5625 17.8125 C-6.28501953 17.73064453 -7.00753906 17.64878906 -7.75195312 17.56445312 C-9.50034583 17.36761421 -11.25005349 17.18250976 -13 17 C-13 16.67 -13 16.34 -13 16 C-12.0925 15.855625 -11.185 15.71125 -10.25 15.5625 C-7.1721709 15.09816667 -7.1721709 15.09816667 -4.9375 14.375 C-2.42216567 13.8881611 -0.46243248 14.38439188 2 15 C2 15.66 2 16.32 2 17 C4.31 17.33 6.62 17.66 9 18 C9 13.05 9 8.1 9 3 C6.03 2.34 3.06 1.68 0 1 C0 0.67 0 0.34 0 0 Z " fill="#7D76D6" transform="translate(111,142)"/>
<path d="M0 0 C5.19511107 2.44060354 8.56586705 5.40274278 11.8359375 10.08984375 C10.8459375 10.41984375 9.8559375 10.74984375 8.8359375 11.08984375 C8.0934375 10.12046875 7.3509375 9.15109375 6.5859375 8.15234375 C4.86283835 6.06597014 4.09725056 5.18871896 1.5234375 4.21484375 C0.688125 4.15296875 0.688125 4.15296875 -0.1640625 4.08984375 C-0.1640625 3.42984375 -0.1640625 2.76984375 -0.1640625 2.08984375 C-2.47650042 2.06298963 -4.7890252 2.04351534 -7.1015625 2.02734375 C-9.03322266 2.00994141 -9.03322266 2.00994141 -11.00390625 1.9921875 C-14.02704653 1.72451826 -14.02704653 1.72451826 -15.1640625 3.08984375 C-17.34699024 3.32466068 -19.53609424 3.50347698 -21.7265625 3.65234375 C-22.92410156 3.73613281 -24.12164062 3.81992188 -25.35546875 3.90625 C-26.28230469 3.96683594 -27.20914062 4.02742187 -28.1640625 4.08984375 C-20.08628229 -2.25698356 -9.81595757 -2.82360261 0 0 Z " fill="#6E65D5" transform="translate(364.1640625,140.91015625)"/>
<path d="M0 0 C4.27161608 5.96219525 5.1499696 12.36864719 5.25 19.5625 C5.27578125 20.67753906 5.3015625 21.79257813 5.328125 22.94140625 C4.9715306 26.26537546 4.24295331 27.58587394 2 30 C2.04640625 28.72125 2.0928125 27.4425 2.140625 26.125 C2.17817027 24.41669021 2.21456745 22.70835492 2.25 21 C2.28351563 20.16082031 2.31703125 19.32164062 2.3515625 18.45703125 C2.44465889 12.45231394 1.41164121 8.007013 -2 3 C-4.96318475 0.366058 -7.21108707 -0.16425426 -11.0625 -0.25 C-13.92801923 -0.06806227 -16.30375849 0.10125283 -19 1 C-18.67 0.01 -18.34 -0.98 -18 -2 C-12.0084304 -4.53489483 -5.37030348 -3.24244738 0 0 Z " fill="#736CD7" transform="translate(291,160)"/>
<path d="M0 0 C1.505625 0.45375 3.01125 0.9075 4.5625 1.375 C5.48289062 1.64699219 6.40328125 1.91898438 7.3515625 2.19921875 C9.3943891 2.81688756 11.42030924 3.49065228 13.4375 4.1875 C19.51461653 5.57350903 25.9759538 5.76347957 32 4 C31.67 4.99 31.34 5.98 31 7 C20.03092281 7.51283997 11.52259988 6.50753329 1 3 C1.33 7.95 1.66 12.9 2 18 C2.99 18.33 3.98 18.66 5 19 C5 19.66 5 20.32 5 21 C9.29 21.33 13.58 21.66 18 22 C17.67 22.66 17.34 23.32 17 24 C10.73321297 24.67749049 5.74041084 22.24016033 0 20 C0 13.4 0 6.8 0 0 Z " fill="#6C64CD" transform="translate(73,194)"/>
<path d="M0 0 C1.2150451 3.56016711 0.76639433 6.15500986 0.0625 9.8125 C-1.20180419 17.27953148 -1.18798149 24.44941019 -1 32 C-0.34 32 0.32 32 1 32 C1.66 35.3 2.32 38.6 3 42 C3.66 42 4.32 42 5 42 C5 42.66 5 43.32 5 44 C5.99 44.33 6.98 44.66 8 45 C9.1875 48.0625 9.1875 48.0625 10 51 C3.12050973 46.41367315 -0.80543636 39.18597987 -2.65234375 31.16796875 C-3.79852109 20.72358874 -4.14618703 9.82251452 0 0 Z " fill="#716BD6" transform="translate(323,160)"/>
<path d="M0 0 C4.06083698 1.9278721 6.49251992 3.18213925 9.01953125 6.97265625 C7.69953125 6.64265625 6.37953125 6.31265625 5.01953125 5.97265625 C5.01953125 5.31265625 5.01953125 4.65265625 5.01953125 3.97265625 C0.06953125 2.98265625 0.06953125 2.98265625 -4.98046875 1.97265625 C-4.98046875 1.31265625 -4.98046875 0.65265625 -4.98046875 -0.02734375 C-10.81960467 0.24298662 -14.95370207 1.28206515 -20.05078125 4.1171875 C-23.123897 5.47956068 -25.66703846 5.24877544 -28.98046875 4.97265625 C-28.98046875 3.98265625 -28.98046875 2.99265625 -28.98046875 1.97265625 C-36.90046875 2.46765625 -36.90046875 2.46765625 -44.98046875 2.97265625 C-44.98046875 2.31265625 -44.98046875 1.65265625 -44.98046875 0.97265625 C-38.71046875 0.97265625 -32.44046875 0.97265625 -25.98046875 0.97265625 C-25.98046875 1.96265625 -25.98046875 2.95265625 -25.98046875 3.97265625 C-25.40941406 3.61171875 -24.83835937 3.25078125 -24.25 2.87890625 C-16.42079396 -1.60203838 -8.69823109 -2.99821072 0 0 Z " fill="#6D63D1" transform="translate(294.98046875,141.02734375)"/>
<path d="M0 0 C0.66 0.33 1.32 0.66 2 1 C2 7.6 2 14.2 2 21 C-0.97 21 -3.94 21 -7 21 C-4 19 -4 19 0 19 C-0.33 13.72 -0.66 8.44 -1 3 C-2.44375 3.20625 -3.8875 3.4125 -5.375 3.625 C-7.8359375 3.9765625 -7.8359375 3.9765625 -10 4 C-10.66 3.34 -11.32 2.68 -12 2 C-8.08488397 -0.61007735 -4.5480334 -0.22006613 0 0 Z " fill="#8077D4" transform="translate(212,140)"/>
<path d="M0 0 C0.33 0 0.66 0 1 0 C1.144375 1.134375 1.28875 2.26875 1.4375 3.4375 C1.61171478 6.80777201 1.61171478 6.80777201 3 8 C4.63256758 8.15714654 6.27135338 8.25085414 7.91015625 8.31640625 C8.89951172 8.35830078 9.88886719 8.40019531 10.90820312 8.44335938 C11.94912109 8.48267578 12.99003906 8.52199219 14.0625 8.5625 C15.10728516 8.60568359 16.15207031 8.64886719 17.22851562 8.69335938 C19.81886884 8.79981225 22.40932186 8.9018276 25 9 C25 9.99 25 10.98 25 12 C21.77090994 12.05834353 18.54195662 12.09371115 15.3125 12.125 C14.40048828 12.14175781 13.48847656 12.15851563 12.54882812 12.17578125 C7.93151773 12.20936169 4.18067669 12.23556185 0 10 C0 6.7 0 3.4 0 0 Z " fill="#F1F3FA" transform="translate(216,208)"/>
<path d="M0 0 C6.63117795 4.168169 9.57751264 11.34575815 11.3125 18.75 C12.56416562 26.25999374 13.72725516 35.15436105 10 42 C9.98541748 41.34515625 9.97083496 40.6903125 9.95581055 40.015625 C9.88071957 37.00986327 9.78426329 34.00513903 9.6875 31 C9.66494141 29.97003906 9.64238281 28.94007813 9.61914062 27.87890625 C9.39976527 21.61673708 8.69666874 16.6855873 6 11 C5.319375 10.505 4.63875 10.01 3.9375 9.5 C0.78072114 7.05604217 0.75337263 3.82964421 0 0 Z " fill="#7773D2" transform="translate(304,148)"/>
<path d="M0 0 C1.32 0.33 2.64 0.66 4 1 C4 5.29 4 9.58 4 14 C-4.43461538 18.09326923 -4.43461538 18.09326923 -7.296875 17.62109375 C-7.85890625 17.41613281 -8.4209375 17.21117187 -9 17 C-7.02 16.67 -5.04 16.34 -3 16 C-3 15.01 -3 14.02 -3 13 C-1.02 12.67 0.96 12.34 3 12 C3 8.7 3 5.4 3 2 C2.01 2.33 1.02 2.66 0 3 C-1.62719482 3.08143855 -3.25751719 3.1075302 -4.88671875 3.09765625 C-5.82451172 3.09443359 -6.76230469 3.09121094 -7.72851562 3.08789062 C-8.70498047 3.07951172 -9.68144531 3.07113281 -10.6875 3.0625 C-12.16959961 3.05573242 -12.16959961 3.05573242 -13.68164062 3.04882812 C-16.12115474 3.03704303 -18.56054689 3.02059011 -21 3 C-21 2.67 -21 2.34 -21 2 C-20.39937744 1.97494385 -19.79875488 1.9498877 -19.17993164 1.92407227 C-16.47388563 1.8084472 -13.76821717 1.68557064 -11.0625 1.5625 C-10.11697266 1.52318359 -9.17144531 1.48386719 -8.19726562 1.44335938 C-7.29814453 1.40146484 -6.39902344 1.35957031 -5.47265625 1.31640625 C-4.64000244 1.27974854 -3.80734863 1.24309082 -2.94946289 1.20532227 C-0.99661142 1.20632897 -0.99661142 1.20632897 0 0 Z " fill="#685CDD" transform="translate(375,199)"/>
<path d="M0 0 C1.53266582 3.06533164 1.10276471 6.26754272 1.0625 9.625 C1.05798828 10.33140625 1.05347656 11.0378125 1.04882812 11.765625 C1.03703875 13.51045275 1.01910324 15.255237 1 17 C1.33 17 1.66 17 2 17 C2 12.05 2 7.1 2 2 C2.66 1.67 3.32 1.34 4 1 C4 8.59 4 16.18 4 24 C0.89448334 24 -0.35261084 23.4606285 -3 22 C-2.34 21.67 -1.68 21.34 -1 21 C-1.00523682 20.39937744 -1.01047363 19.79875488 -1.01586914 19.17993164 C-1.03658014 16.47413162 -1.04964125 13.76834823 -1.0625 11.0625 C-1.07087891 10.11697266 -1.07925781 9.17144531 -1.08789062 8.19726562 C-1.09111328 7.29814453 -1.09433594 6.39902344 -1.09765625 5.47265625 C-1.10289307 4.64000244 -1.10812988 3.80734863 -1.11352539 2.94946289 C-1 1 -1 1 0 0 Z " fill="#F2F4FE" transform="translate(215,140)"/>
<path d="M0 0 C2.97 0 5.94 0 9 0 C9 0.66 9 1.32 9 2 C10.11375 2.144375 11.2275 2.28875 12.375 2.4375 C16 3 16 3 18 4 C18 4.66 18 5.32 18 6 C17.42185547 5.83773926 16.84371094 5.67547852 16.24804688 5.50830078 C12.69801912 4.70561206 9.12061766 4.85655882 5.5 4.875 C4.36111328 4.86919922 4.36111328 4.86919922 3.19921875 4.86328125 C-0.37014456 4.86953232 -3.56731602 5.03659064 -7 6 C-7 5.34 -7 4.68 -7 4 C-4 2 -4 2 0 2 C0 1.34 0 0.68 0 0 Z " fill="#EAEFFC" transform="translate(347,136)"/>
<path d="M0 0 C-1 3 -1 3 -3 4 C-3.33 20.83 -3.66 37.66 -4 55 C-4.33 55 -4.66 55 -5 55 C-5.0759439 47.64939985 -5.12855502 40.29890053 -5.16479492 32.94799805 C-5.17989944 30.44633198 -5.20038429 27.94469247 -5.22631836 25.44311523 C-5.26262775 21.85133316 -5.27970975 18.25990059 -5.29296875 14.66796875 C-5.31619453 12.98503975 -5.31619453 12.98503975 -5.33988953 11.26811218 C-5.34022942 9.70683342 -5.34022942 9.70683342 -5.34057617 8.11401367 C-5.34723801 7.19690109 -5.35389984 6.27978851 -5.36076355 5.33488464 C-4.84718513 2.01097244 -3.51478702 0 0 0 Z " fill="#C2BAFE" transform="translate(202,162)"/>
<path d="M0 0 C0.62261719 0.15339844 1.24523437 0.30679688 1.88671875 0.46484375 C6.18274772 1.20330795 10.46241952 1.36462162 14.8125 1.5625 C15.69615234 1.60568359 16.57980469 1.64886719 17.49023438 1.69335938 C19.65999623 1.79891536 21.8299791 1.89991071 24 2 C24 2.66 24 3.32 24 4 C21.58343806 4.16831775 19.16676951 4.33471262 16.75 4.5 C16.06808594 4.54769531 15.38617188 4.59539062 14.68359375 4.64453125 C9.59248572 4.99052888 4.99404274 5.10978727 0 4 C0 2.68 0 1.36 0 0 Z " fill="#FAFEED" transform="translate(216,218)"/>
<path d="M0 0 C0 5.94 0 11.88 0 18 C-0.33 18 -0.66 18 -1 18 C-1 12.39 -1 6.78 -1 1 C-1.66 1 -2.32 1 -3 1 C-3 1.66 -3 2.32 -3 3 C-4.01320312 3.19916016 -4.01320312 3.19916016 -5.046875 3.40234375 C-6.38492188 3.66724609 -6.38492188 3.66724609 -7.75 3.9375 C-8.63171875 4.11152344 -9.5134375 4.28554687 -10.421875 4.46484375 C-12.9494898 4.94131671 -12.9494898 4.94131671 -15.140625 5.69140625 C-17 6 -17 6 -20 4 C-17.41806023 3.32749476 -14.83467929 2.66182099 -12.25 2 C-11.15558594 1.71382813 -11.15558594 1.71382813 -10.0390625 1.421875 C-6.55428354 0.53484036 -3.61876278 0 0 0 Z " fill="#8379D5" transform="translate(241,112)"/>
<path d="M0 0 C6.27 0 12.54 0 19 0 C19 1.98 19 3.96 19 6 C18.01 5.34 17.02 4.68 16 4 C16 3.34 16 2.68 16 2 C10.72 2 5.44 2 0 2 C0 1.34 0 0.68 0 0 Z " fill="#776DD0" transform="translate(176,141)"/>
<path d="M0 0 C0.66 0.33 1.32 0.66 2 1 C-2.75 5 -2.75 5 -5 5 C-5 5.66 -5 6.32 -5 7 C-8.77222089 8.75163456 -11.666639 9.22490027 -15.8125 9.125 C-17.27623047 9.09792969 -17.27623047 9.09792969 -18.76953125 9.0703125 C-19.50558594 9.04710937 -20.24164063 9.02390625 -21 9 C-17.71508627 6.81005752 -16.16904361 6.64722661 -12.3125 6.375 C-11.31863281 6.30023438 -10.32476562 6.22546875 -9.30078125 6.1484375 C-8.54152344 6.09945312 -7.78226562 6.05046875 -7 6 C-7 5.34 -7 4.68 -7 4 C-1.7265625 0.77734375 -1.7265625 0.77734375 0 0 Z " fill="#6C62D5" transform="translate(304,209)"/>
<path d="M0 0 C0.474375 0.639375 0.94875 1.27875 1.4375 1.9375 C5.93935982 5.56094815 11.41055499 5 17 5 C17 10.61 17 16.22 17 22 C16.67 22 16.34 22 16 22 C16 17.05 16 12.1 16 7 C13.00520833 7.09765625 10.01041667 7.1953125 7.015625 7.29296875 C3.65384335 6.96637079 2.28606246 6.4691694 0 4 C0 2.68 0 1.36 0 0 Z " fill="#7972CB" transform="translate(152,194)"/>
<path d="M0 0 C0 5.94 0 11.88 0 18 C-0.66 17.67 -1.32 17.34 -2 17 C-2 12.71 -2 8.42 -2 4 C-3.010625 4.165 -4.02125 4.33 -5.0625 4.5 C-8.76262933 4.96985769 -12.27607391 5.07599849 -16 5 C-16 4.67 -16 4.34 -16 4 C-15.24074219 3.79503906 -14.48148437 3.59007812 -13.69921875 3.37890625 C-12.20841797 2.97478516 -12.20841797 2.97478516 -10.6875 2.5625 C-9.70136719 2.29566406 -8.71523438 2.02882812 -7.69921875 1.75390625 C-1.41968912 0 -1.41968912 0 0 0 Z " fill="#8279D4" transform="translate(380,196)"/>
<path d="M0 0 C0.66 0.66 1.32 1.32 2 2 C2.66 1.34 3.32 0.68 4 0 C4.13560864 1.74784467 4.23227209 3.49873926 4.3125 5.25 C4.39951172 6.71179688 4.39951172 6.71179688 4.48828125 8.203125 C4 11 4 11 -1 15 C-0.67 10.05 -0.34 5.1 0 0 Z " fill="#E7EEFE" transform="translate(316,175)"/>
<path d="M0 0 C0.33 0 0.66 0 1 0 C0.9375 3.25 0.9375 3.25 0 7 C-5.05376255 11.02238243 -8.66269711 11.44472301 -15 11 C-15 10.34 -15 9.68 -15 9 C-14.32453125 8.91363281 -13.6490625 8.82726562 -12.953125 8.73828125 C-7.11509424 7.88424967 -7.11509424 7.88424967 -2.4375 4.5 C-1.58714913 3.02112893 -0.76290973 1.52581945 0 0 Z " fill="#7971D3" transform="translate(292,190)"/>
<path d="M0 0 C2 2 2 2 2.125 4.625 C2.08375 5.40875 2.0425 6.1925 2 7 C1.071875 7.45375 0.14375 7.9075 -0.8125 8.375 C-4.03921389 9.9421633 -4.03921389 9.9421633 -7 12 C-7.66 11.34 -8.32 10.68 -9 10 C-8.071875 9.278125 -7.14375 8.55625 -6.1875 7.8125 C-3.41165004 5.51569743 -1.6617322 3.23114595 0 0 Z " fill="#EBF1F4" transform="translate(310,203)"/>
<path d="M0 0 C1.32 0 2.64 0 4 0 C4 0.66 4 1.32 4 2 C4.66 2 5.32 2 6 2 C5.67 3.32 5.34 4.64 5 6 C3.68 6 2.36 6 1 6 C0.67 6.99 0.34 7.98 0 9 C-0.66 8.67 -1.32 8.34 -2 8 C-1.34 5.36 -0.68 2.72 0 0 Z " fill="#E7EAFA" transform="translate(126,198)"/>
<path d="M0 0 C1.61778428 4.50892135 -0.02043409 7.42414395 -1.80859375 11.6484375 C-3.15446388 14.30487624 -4.65554667 16.15792953 -7 18 C-6.6875 14.625 -6.6875 14.625 -6 11 C-5.01 10.34 -4.02 9.68 -3 9 C-1.99194445 6.82102508 -1.99194445 6.82102508 -1.3125 4.375 C-1.06113281 3.55773437 -0.80976563 2.74046875 -0.55078125 1.8984375 C-0.36902344 1.27195313 -0.18726563 0.64546875 0 0 Z " fill="#6964D6" transform="translate(313,191)"/>
<path d="M0 0 C4.28025299 3.39468341 6.0082369 7.73531366 7 13 C6.57421875 15.28125 6.57421875 15.28125 6 17 C0 3.28571429 0 3.28571429 0 0 Z " fill="#6F68D4" transform="translate(376,152)"/>
<path d="M0 0 C0.33 0 0.66 0 1 0 C1 2.97 1 5.94 1 9 C0.67 7.68 0.34 6.36 0 5 C-2.64 4.67 -5.28 4.34 -8 4 C-8 3.01 -8 2.02 -8 1 C-2.25 0.875 -2.25 0.875 0 2 C0 1.34 0 0.68 0 0 Z " fill="#F6FDF2" transform="translate(216,162)"/>
<path d="M0 0 C6.27 0 12.54 0 19 0 C19 0.99 19 1.98 19 3 C19.99 2.67 20.98 2.34 22 2 C22 2.66 22 3.32 22 4 C20.02 4 18.04 4 16 4 C16 3.01 16 2.02 16 1 C8.08 1.495 8.08 1.495 0 2 C0 1.34 0 0.68 0 0 Z " fill="#766BDF" transform="translate(250,142)"/>
<path d="M0 0 C-0.33 1.65 -0.66 3.3 -1 5 C-2.32 5.33 -3.64 5.66 -5 6 C-5 6.66 -5 7.32 -5 8 C-6.32 8.33 -7.64 8.66 -9 9 C-7.45665977 5.21180126 -4.44676575 0 0 0 Z " fill="#736CDA" transform="translate(336,145)"/>
<path d="M0 0 C0.59732819 2.76264289 1 5.16032769 1 8 C-2.057952 6.26440562 -4.63379989 4.61527381 -7 2 C-4 0 -4 0 0 0 Z " fill="#7166E5" transform="translate(102,184)"/>
<path d="M0 0 C1.98 0.99 1.98 0.99 4 2 C3.01 2.33 2.02 2.66 1 3 C1 9.6 1 16.2 1 23 C0.67 23 0.34 23 0 23 C0 15.41 0 7.82 0 0 Z " fill="#EBEEFE" transform="translate(271,214)"/>
<path d="M0 0 C-0.1875 1.8125 -0.1875 1.8125 -1 4 C-3.4375 5.8125 -3.4375 5.8125 -6 7 C-6.66 6.67 -7.32 6.34 -8 6 C-4.61538462 0 -4.61538462 0 0 0 Z " fill="#675DDE" transform="translate(120,208)"/>
<path d="M0 0 C-0.99 0.33 -1.98 0.66 -3 1 C-3.33 1.99 -3.66 2.98 -4 4 C-6.875 4.125 -6.875 4.125 -10 4 C-10.66 3.34 -11.32 2.68 -12 2 C-8.09971775 -0.60018816 -4.52565431 -0.15085514 0 0 Z " fill="#8074E2" transform="translate(212,140)"/>
<path d="M0 0 C2.97 0 5.94 0 9 0 C9 0.33 9 0.66 9 1 C11.31 1.33 13.62 1.66 16 2 C16 2.33 16 2.66 16 3 C14.27119018 3.05449838 12.54187288 3.09301688 10.8125 3.125 C9.84957031 3.14820313 8.88664063 3.17140625 7.89453125 3.1953125 C4.87187222 2.9913544 2.73230015 2.26874632 0 1 C0 0.67 0 0.34 0 0 Z " fill="#928AE2" transform="translate(144,216)"/>
<path d="M0 0 C3.35111834 2.23407889 4.81553956 3.26215824 5.8125 7.25 C5.874375 8.1575 5.93625 9.065 6 10 C4.125 9.5 4.125 9.5 2 8 C1.01505446 5.34822355 0.54087618 2.79452693 0 0 Z " fill="#665FD4" transform="translate(304,148)"/>
<path d="M0 0 C0.66 0 1.32 0 2 0 C2 2.31 2 4.62 2 7 C0.68 7.33 -0.64 7.66 -2 8 C-1.125 1.125 -1.125 1.125 0 0 Z " fill="#675BEC" transform="translate(165,208)"/>
<path d="M0 0 C7.425 0.99 7.425 0.99 15 2 C15 2.33 15 2.66 15 3 C10.38 3.33 5.76 3.66 1 4 C0.67 2.68 0.34 1.36 0 0 Z " fill="#DEDFFB" transform="translate(275,216)"/>
<path d="M0 0 C-0.99 0.66 -1.98 1.32 -3 2 C-1.68 2.66 -0.36 3.32 1 4 C-0.4800841 3.88637738 -1.95910074 3.75877092 -3.4375 3.625 C-4.26121094 3.55539063 -5.08492187 3.48578125 -5.93359375 3.4140625 C-6.61550781 3.27742187 -7.29742187 3.14078125 -8 3 C-8.33 2.34 -8.66 1.68 -9 1 C-6.04335481 -0.4783226 -3.25770263 -0.06032783 0 0 Z " fill="#DEDEF6" transform="translate(164,196)"/>
<path d="M0 0 C3.63 0.33 7.26 0.66 11 1 C11.66 2.65 12.32 4.3 13 6 C11.68 5.67 10.36 5.34 9 5 C9 4.34 9 3.68 9 3 C7.88625 2.87625 6.7725 2.7525 5.625 2.625 C2 2 2 2 0 0 Z " fill="#D3D5F9" transform="translate(104,170)"/>
<path d="M0 0 C0.99 0.66 1.98 1.32 3 2 C2.01 3.98 1.02 5.96 0 8 C-0.66 8 -1.32 8 -2 8 C-2.125 5.125 -2.125 5.125 -2 2 C-1.34 1.34 -0.68 0.68 0 0 Z " fill="#EBEDFD" transform="translate(323,154)"/>
<path d="M0 0 C0.99 0.33 1.98 0.66 3 1 C3 6.28 3 11.56 3 17 C2.67 17 2.34 17 2 17 C1.95101562 16.01257813 1.90203125 15.02515625 1.8515625 14.0078125 C1.77679688 12.72648438 1.70203125 11.44515625 1.625 10.125 C1.55539063 8.84882813 1.48578125 7.57265625 1.4140625 6.2578125 C1.32758894 2.91938301 1.32758894 2.91938301 -1 1 C-0.67 0.67 -0.34 0.34 0 0 Z " fill="#6957F0" transform="translate(209,142)"/>
<path d="M0 0 C3.16115776 1.36983503 3.9927092 1.9890638 6 5 C6.99 5.33 7.98 5.66 9 6 C9 6.66 9 7.32 9 8 C5.08158173 6.69386058 2.67359191 5.16870152 0 2 C0 1.34 0 0.68 0 0 Z " fill="#6F6ACE" transform="translate(135,208)"/>
<path d="M0 0 C-2.91985315 2.48728231 -5.14219907 3.71066493 -9 4 C-11.3125 3.0625 -11.3125 3.0625 -13 2 C-4.57142857 -0.28571429 -4.57142857 -0.28571429 0 0 Z " fill="#D6D4F8" transform="translate(241,130)"/>
<path d="M0 0 C2.12038635 2.61514317 4.13091744 5.19637616 6 8 C3.625 7.75 3.625 7.75 1 7 C-0.375 5.125 -0.375 5.125 -1 3 C-0.67 2.01 -0.34 1.02 0 0 Z " fill="#E2E5F9" transform="translate(133,206)"/>
<path d="M0 0 C-1 3 -1 3 -3 4 C-3.46751788 6.35599235 -3.46751788 6.35599235 -3.625 9.0625 C-3.69976562 9.98160156 -3.77453125 10.90070313 -3.8515625 11.84765625 C-3.90054688 12.55792969 -3.94953125 13.26820313 -4 14 C-4.33 14 -4.66 14 -5 14 C-5.08114106 12.22992286 -5.13925505 10.45877902 -5.1875 8.6875 C-5.22230469 7.70136719 -5.25710937 6.71523437 -5.29296875 5.69921875 C-5 3 -5 3 -3.61328125 1.14453125 C-2 0 -2 0 0 0 Z " fill="#C6C6FD" transform="translate(202,162)"/>
<path d="M0 0 C1.32 0.33 2.64 0.66 4 1 C1.66666667 3.33333333 -0.66666667 5.66666667 -3 8 C-3 6.02 -3 4.04 -3 2 C-2.01 2 -1.02 2 0 2 C0 1.34 0 0.68 0 0 Z " fill="#6E6ACE" transform="translate(344,158)"/>
<path d="M0 0 C-3.79541663 2.21399303 -7.75629421 3.00980198 -12 4 C-11.67 3.01 -11.34 2.02 -11 1 C-7.50970582 -0.47666292 -3.72563614 -0.07164685 0 0 Z " fill="#6661CB" transform="translate(284,157)"/>
<path d="M0 0 C4.29 0.33 8.58 0.66 13 1 C13 1.33 13 1.66 13 2 C9.37 2.33 5.74 2.66 2 3 C2 2.34 2 1.68 2 1 C1.34 0.67 0.68 0.34 0 0 Z " fill="#6057D3" transform="translate(93,156)"/>
<path d="M0 0 C0.99 0.495 0.99 0.495 2 1 C1.01 1.495 1.01 1.495 0 2 C0 1.34 0 0.68 0 0 Z M-1.3125 2.375 C-0.549375 2.58125 0.21375 2.7875 1 3 C-1.63904371 4.41377341 -4.07120629 5.37240135 -7 6 C-7 5.34 -7 4.68 -7 4 C-4 2 -4 2 -1.3125 2.375 Z " fill="#EFF3FC" transform="translate(347,136)"/>
<path d="M0 0 C-2.55068845 2.35448165 -3.71017358 2.98327924 -7.25 3.1875 C-8.1575 3.125625 -9.065 3.06375 -10 3 C-10 2.34 -10 1.68 -10 1 C-6.59437148 0.22157062 -3.49234244 -0.09978121 0 0 Z " fill="#756BDF" transform="translate(112,215)"/>
<path d="M0 0 C1.875 0.625 1.875 0.625 4 2 C5.25 5.125 5.25 5.125 6 8 C1.3125 4.38671875 1.3125 4.38671875 0 3 C0 2.01 0 1.02 0 0 Z " fill="#6D65CA" transform="translate(327,203)"/>
<path d="M0 0 C0.33 0.99 0.66 1.98 1 3 C-0.65 4.32 -2.3 5.64 -4 7 C-4.66 6.34 -5.32 5.68 -6 5 C-4.02 3.35 -2.04 1.7 0 0 Z " fill="#DDE0FE" transform="translate(307,208)"/>
</svg>
